<svg version="1.1" id="Layer_1" xmlns="http://www.w3.org/2000/svg" xmlns:xlink="http://www.w3.org/1999/xlink" x="0px" y="0px"
	 width="100%" viewBox="0 0 2000 1500" enable-background="new 0 0 2000 1500" xml:space="preserve">
<path fill="#31C48D" opacity="1.000000" stroke="none" 
	d="
M1231.000000,1501.000000 
	C820.666809,1501.000000 410.833588,1501.000000 1.000275,1501.000000 
	C1.000183,1001.000244 1.000183,501.000549 1.000092,1.000610 
	C667.666199,1.000407 1334.332397,1.000407 2000.998901,1.000203 
	C2000.999268,500.999390 2000.999268,1000.998779 2000.999634,1500.999023 
	C1744.500000,1501.000000 1488.000000,1501.000000 1231.000000,1501.000000 
M310.032410,862.499756 
	C310.032379,867.998352 310.336639,873.521973 309.887451,878.983643 
	C309.699219,881.272217 308.486633,884.134460 306.763580,885.534424 
	C293.447327,896.353699 280.011658,907.036865 266.334351,917.394226 
	C262.432526,920.348999 260.924805,923.435364 261.185394,928.245544 
	C261.581482,935.556458 261.454681,942.909851 261.220001,950.234680 
	C261.105469,953.808716 262.411194,954.762146 265.828186,954.729309 
	C281.158020,954.581970 296.490692,954.757629 311.821136,954.648010 
	C349.492706,954.378601 387.104462,955.189758 424.657806,958.690430 
	C447.608612,960.829773 470.619659,960.737061 493.263580,955.429199 
	C550.358765,942.045654 598.797058,913.712585 638.480103,870.571899 
	C657.937134,849.419556 673.693542,825.886475 683.104004,798.451233 
	C694.677185,764.710754 694.914062,730.319824 687.831421,695.882263 
	C676.280457,639.717957 646.494446,596.176147 595.971497,567.846924 
	C559.115112,547.180969 519.098877,540.720276 477.403748,542.472168 
	C442.116730,543.954834 406.847839,546.080017 371.547028,546.961182 
	C339.570526,547.759338 307.561432,547.230042 275.567444,547.411255 
	C273.657898,547.422058 270.685699,547.976257 270.015137,549.238037 
	C263.866333,560.807800 258.117279,572.590149 252.078995,584.655579 
	C271.680206,590.635681 290.730927,596.447876 310.032410,602.336548 
	C310.032410,688.893372 310.032410,775.196594 310.032410,862.499756 
M1035.499878,954.667297 
	C1062.554688,953.270264 1089.226807,955.474304 1115.773071,964.506104 
	C1115.773071,961.348694 1115.773193,959.543884 1115.773193,957.739136 
	C1115.773315,929.742554 1115.773438,901.745972 1115.773315,873.749390 
	C1115.773315,856.418213 1115.824829,839.086548 1115.691895,821.756409 
	C1115.678711,820.040161 1115.000244,817.298157 1113.847900,816.783020 
	C1103.724976,812.257629 1093.424561,808.129700 1083.177490,803.884460 
	C1081.987183,805.495422 1081.072266,806.674500 1080.219482,807.896851 
	C1057.442383,840.544739 1034.624390,873.164612 1011.975708,905.901489 
	C1009.822693,909.013489 1007.622803,910.140686 1003.855896,910.123901 
	C969.360840,909.970276 934.864807,910.033630 900.369019,910.033630 
	C898.579773,910.033630 896.790588,910.033569 894.772766,910.033569 
	C894.772766,862.740479 894.772766,816.016541 894.772766,768.953003 
	C896.701111,768.846741 898.322876,768.682007 899.944824,768.679810 
	C914.776306,768.659729 929.609558,768.790344 944.438110,768.580566 
	C948.092957,768.528870 950.036987,769.614258 951.686279,772.960571 
	C961.323914,792.514771 971.215332,811.943909 981.026917,831.412292 
	C981.827271,833.000488 982.671631,834.566589 983.653015,836.444214 
	C994.956848,830.874695 1005.753113,825.350220 1016.748413,820.255188 
	C1020.321716,818.599304 1021.441650,816.604980 1021.429321,812.708374 
	C1021.282593,766.547852 1021.334900,720.386658 1021.334961,674.225647 
	C1021.334961,672.471313 1021.335022,670.716980 1021.335022,668.665405 
	C1011.233459,668.665405 1001.912598,668.804504 992.599976,668.589294 
	C989.375854,668.514771 987.494507,669.563171 985.707275,672.253174 
	C974.924255,688.483093 963.888000,704.544678 953.084229,720.760925 
	C951.236755,723.533875 949.284302,724.791321 945.822815,724.747681 
	C930.493774,724.554504 915.157532,724.483337 899.831543,724.773193 
	C895.214050,724.860535 894.347656,723.209900 894.361755,719.015564 
	C894.498901,678.354370 894.440125,637.692505 894.459778,597.030823 
	C894.460571,595.448059 894.688171,593.865479 894.819946,592.154846 
	C896.111694,592.073669 896.924866,591.978088 897.738037,591.977844 
	C935.233459,591.969177 972.729126,591.915771 1010.223450,592.118896 
	C1012.164917,592.129395 1014.769836,593.882446 1015.929077,595.594116 
	C1035.726929,624.828308 1055.398438,654.148682 1074.927124,683.563354 
	C1077.068115,686.788269 1078.769531,687.723877 1082.468018,685.966553 
	C1090.126465,682.327759 1097.943359,678.980835 1105.861816,675.949219 
	C1109.630981,674.506287 1110.617798,672.414673 1110.604248,668.527100 
	C1110.458740,627.032654 1110.514038,585.537598 1110.514038,544.042664 
	C1110.514038,542.275635 1110.514038,540.508606 1110.514038,538.194641 
	C1106.541504,539.070068 1103.299561,539.632019 1100.143555,540.504883 
	C1081.255981,545.728333 1062.125977,547.619324 1042.448486,547.528442 
	C948.128662,547.092468 853.805847,547.332703 759.484070,547.333252 
	C757.984253,547.333252 756.413208,547.064148 755.005798,547.426819 
	C753.728455,547.755859 752.073730,548.491150 751.536865,549.536255 
	C745.612427,561.067566 739.873901,572.694458 733.906494,584.653442 
	C753.400146,590.255249 772.535461,595.754028 791.729309,601.269653 
	C791.807251,602.920898 791.923767,604.238770 791.923889,605.556641 
	C791.932495,696.712158 791.954712,787.867676 791.795532,879.022888 
	C791.791626,881.235962 790.322510,884.139893 788.585388,885.547058 
	C774.605957,896.871338 760.375793,907.885681 746.295349,919.086731 
	C744.980408,920.132690 743.300659,921.791504 743.265076,923.202942 
	C743.006470,933.478149 743.125977,943.762878 743.125977,954.667236 
	C840.619324,954.667236 937.559570,954.667236 1035.499878,954.667297 
M1362.062378,746.500000 
	C1362.062378,659.109436 1362.062378,571.718933 1362.062378,484.471802 
	C1312.977051,484.471802 1264.747681,484.471802 1216.505493,484.471802 
	C1216.505493,662.410400 1216.505493,839.955200 1216.505493,1017.626831 
	C1265.102783,1017.626831 1313.340820,1017.626831 1362.062378,1017.626831 
	C1362.062378,927.388428 1362.062378,837.444214 1362.062378,746.500000 
M1540.004150,592.500000 
	C1540.004150,556.559570 1540.004150,520.619141 1540.004150,484.398438 
	C1491.158325,484.398438 1442.938843,484.398438 1394.414551,484.398438 
	C1394.414551,662.251465 1394.414551,839.779663 1394.414551,1017.607056 
	C1442.970459,1017.607056 1491.190186,1017.607056 1540.004150,1017.607056 
	C1540.004150,876.025696 1540.004150,734.762878 1540.004150,592.500000 
M1717.978516,563.500000 
	C1717.978394,539.333862 1717.982056,515.167725 1717.975830,491.001617 
	C1717.973999,484.092468 1717.960815,484.073853 1711.237549,484.072937 
	C1667.072144,484.067108 1622.906738,484.067047 1578.741333,484.073090 
	C1572.028076,484.074005 1572.013672,484.093262 1572.013550,491.013153 
	C1572.010986,664.341492 1572.010986,837.669800 1572.013672,1010.998169 
	C1572.013794,1017.916809 1572.028320,1017.927734 1579.252686,1017.928345 
	C1622.918091,1017.932068 1666.583496,1017.931396 1710.248901,1017.929382 
	C1717.972778,1017.929016 1717.977539,1017.922852 1717.977539,1009.987183 
	C1717.978516,861.491455 1717.978394,712.995728 1717.978516,563.500000 
z"/>
<path fill="#FEFFFF" opacity="1.000000" stroke="none" 
	d="
M310.032410,861.999817 
	C310.032410,775.196594 310.032410,688.893372 310.032410,602.336548 
	C290.730927,596.447876 271.680206,590.635681 252.078995,584.655579 
	C258.117279,572.590149 263.866333,560.807800 270.015137,549.238037 
	C270.685699,547.976257 273.657898,547.422058 275.567444,547.411255 
	C307.561432,547.230042 339.570526,547.759338 371.547028,546.961182 
	C406.847839,546.080017 442.116730,543.954834 477.403748,542.472168 
	C519.098877,540.720276 559.115112,547.180969 595.971497,567.846924 
	C646.494446,596.176147 676.280457,639.717957 687.831421,695.882263 
	C694.914062,730.319824 694.677185,764.710754 683.104004,798.451233 
	C673.693542,825.886475 657.937134,849.419556 638.480103,870.571899 
	C598.797058,913.712585 550.358765,942.045654 493.263580,955.429199 
	C470.619659,960.737061 447.608612,960.829773 424.657806,958.690430 
	C387.104462,955.189758 349.492706,954.378601 311.821136,954.648010 
	C296.490692,954.757629 281.158020,954.581970 265.828186,954.729309 
	C262.411194,954.762146 261.105469,953.808716 261.220001,950.234680 
	C261.454681,942.909851 261.581482,935.556458 261.185394,928.245544 
	C260.924805,923.435364 262.432526,920.348999 266.334351,917.394226 
	C280.011658,907.036865 293.447327,896.353699 306.763580,885.534424 
	C308.486633,884.134460 309.699219,881.272217 309.887451,878.983643 
	C310.336639,873.521973 310.032379,867.998352 310.032410,861.999817 
M433.202820,594.506470 
	C427.752350,596.514893 422.313934,598.556885 416.846924,600.519287 
	C413.551025,601.702332 412.621796,603.906555 412.641083,607.389099 
	C412.787811,633.882324 412.721069,660.376770 412.721069,686.870789 
	C412.721039,756.188538 412.762665,825.506348 412.620483,894.823853 
	C412.611755,899.079651 413.782471,901.311829 417.980316,902.025696 
	C430.910217,904.224609 443.756866,907.079102 456.760468,908.642395 
	C480.396484,911.483704 502.544342,906.712097 522.315369,893.055237 
	C556.520630,869.427734 572.839722,835.252991 578.975708,795.353149 
	C582.654602,771.431274 581.413452,747.464294 577.822571,723.660767 
	C573.795654,696.966736 566.342773,671.342773 551.831238,648.203064 
	C525.493591,606.205811 481.637573,586.119629 433.202820,594.506470 
z"/>
<path fill="#FEFFFE" opacity="1.000000" stroke="none" 
	d="
M1034.999756,954.667236 
	C937.559570,954.667236 840.619324,954.667236 743.125977,954.667236 
	C743.125977,943.762878 743.006470,933.478149 743.265076,923.202942 
	C743.300659,921.791504 744.980408,920.132690 746.295349,919.086731 
	C760.375793,907.885681 774.605957,896.871338 788.585388,885.547058 
	C790.322510,884.139893 791.791626,881.235962 791.795532,879.022888 
	C791.954712,787.867676 791.932495,696.712158 791.923889,605.556641 
	C791.923767,604.238770 791.807251,602.920898 791.729309,601.269653 
	C772.535461,595.754028 753.400146,590.255249 733.906494,584.653442 
	C739.873901,572.694458 745.612427,561.067566 751.536865,549.536255 
	C752.073730,548.491150 753.728455,547.755859 755.005798,547.426819 
	C756.413208,547.064148 757.984253,547.333252 759.484070,547.333252 
	C853.805847,547.332703 948.128662,547.092468 1042.448486,547.528442 
	C1062.125977,547.619324 1081.255981,545.728333 1100.143555,540.504883 
	C1103.299561,539.632019 1106.541504,539.070068 1110.514038,538.194641 
	C1110.514038,540.508606 1110.514038,542.275635 1110.514038,544.042664 
	C1110.514038,585.537598 1110.458740,627.032654 1110.604248,668.527100 
	C1110.617798,672.414673 1109.630981,674.506287 1105.861816,675.949219 
	C1097.943359,678.980835 1090.126465,682.327759 1082.468018,685.966553 
	C1078.769531,687.723877 1077.068115,686.788269 1074.927124,683.563354 
	C1055.398438,654.148682 1035.726929,624.828308 1015.929077,595.594116 
	C1014.769836,593.882446 1012.164917,592.129395 1010.223450,592.118896 
	C972.729126,591.915771 935.233459,591.969177 897.738037,591.977844 
	C896.924866,591.978088 896.111694,592.073669 894.819946,592.154846 
	C894.688171,593.865479 894.460571,595.448059 894.459778,597.030823 
	C894.440125,637.692505 894.498901,678.354370 894.361755,719.015564 
	C894.347656,723.209900 895.214050,724.860535 899.831543,724.773193 
	C915.157532,724.483337 930.493774,724.554504 945.822815,724.747681 
	C949.284302,724.791321 951.236755,723.533875 953.084229,720.760925 
	C963.888000,704.544678 974.924255,688.483093 985.707275,672.253174 
	C987.494507,669.563171 989.375854,668.514771 992.599976,668.589294 
	C1001.912598,668.804504 1011.233459,668.665405 1021.335022,668.665405 
	C1021.335022,670.716980 1021.334961,672.471313 1021.334961,674.225647 
	C1021.334900,720.386658 1021.282593,766.547852 1021.429321,812.708374 
	C1021.441650,816.604980 1020.321716,818.599304 1016.748413,820.255188 
	C1005.753113,825.350220 994.956848,830.874695 983.653015,836.444214 
	C982.671631,834.566589 981.827271,833.000488 981.026917,831.412292 
	C971.215332,811.943909 961.323914,792.514771 951.686279,772.960571 
	C950.036987,769.614258 948.092957,768.528870 944.438110,768.580566 
	C929.609558,768.790344 914.776306,768.659729 899.944824,768.679810 
	C898.322876,768.682007 896.701111,768.846741 894.772766,768.953003 
	C894.772766,816.016541 894.772766,862.740479 894.772766,910.033569 
	C896.790588,910.033569 898.579773,910.033630 900.369019,910.033630 
	C934.864807,910.033630 969.360840,909.970276 1003.855896,910.123901 
	C1007.622803,910.140686 1009.822693,909.013489 1011.975708,905.901489 
	C1034.624390,873.164612 1057.442383,840.544739 1080.219482,807.896851 
	C1081.072266,806.674500 1081.987183,805.495422 1083.177490,803.884460 
	C1093.424561,808.129700 1103.724976,812.257629 1113.847900,816.783020 
	C1115.000244,817.298157 1115.678711,820.040161 1115.691895,821.756409 
	C1115.824829,839.086548 1115.773315,856.418213 1115.773315,873.749390 
	C1115.773438,901.745972 1115.773315,929.742554 1115.773193,957.739136 
	C1115.773193,959.543884 1115.773071,961.348694 1115.773071,964.506104 
	C1089.226807,955.474304 1062.554688,953.270264 1034.999756,954.667236 
z"/>
<path fill="#FFFFFF" opacity="1.000000" stroke="none" 
	d="
M1362.062378,747.000000 
	C1362.062378,837.444214 1362.062378,927.388428 1362.062378,1017.626831 
	C1313.340820,1017.626831 1265.102783,1017.626831 1216.505493,1017.626831 
	C1216.505493,839.955200 1216.505493,662.410400 1216.505493,484.471802 
	C1264.747681,484.471802 1312.977051,484.471802 1362.062378,484.471802 
	C1362.062378,571.718933 1362.062378,659.109436 1362.062378,747.000000 
z"/>
<path fill="#CBF0E2" opacity="1.000000" stroke="none" 
	d="
M1540.004150,593.000000 
	C1540.004150,734.762878 1540.004150,876.025696 1540.004150,1017.607056 
	C1491.190186,1017.607056 1442.970459,1017.607056 1394.414551,1017.607056 
	C1394.414551,839.779663 1394.414551,662.251465 1394.414551,484.398438 
	C1442.938843,484.398438 1491.158325,484.398438 1540.004150,484.398438 
	C1540.004150,520.619141 1540.004150,556.559570 1540.004150,593.000000 
z"/>
<path fill="#98E1C6" opacity="1.000000" stroke="none" 
	d="
M1717.978516,564.000000 
	C1717.978394,712.995728 1717.978516,861.491455 1717.977539,1009.987183 
	C1717.977539,1017.922852 1717.972778,1017.929016 1710.248901,1017.929382 
	C1666.583496,1017.931396 1622.918091,1017.932068 1579.252686,1017.928345 
	C1572.028320,1017.927734 1572.013794,1017.916809 1572.013672,1010.998169 
	C1572.010986,837.669800 1572.010986,664.341492 1572.013550,491.013153 
	C1572.013672,484.093262 1572.028076,484.074005 1578.741333,484.073090 
	C1622.906738,484.067047 1667.072144,484.067108 1711.237549,484.072937 
	C1717.960815,484.073853 1717.973999,484.092468 1717.975830,491.001617 
	C1717.982056,515.167725 1717.978394,539.333862 1717.978516,564.000000 
z"/>
<path fill="#31C48D" opacity="1.000000" stroke="none" 
	d="
M433.606934,594.381958 
	C481.637573,586.119629 525.493591,606.205811 551.831238,648.203064 
	C566.342773,671.342773 573.795654,696.966736 577.822571,723.660767 
	C581.413452,747.464294 582.654602,771.431274 578.975708,795.353149 
	C572.839722,835.252991 556.520630,869.427734 522.315369,893.055237 
	C502.544342,906.712097 480.396484,911.483704 456.760468,908.642395 
	C443.756866,907.079102 430.910217,904.224609 417.980316,902.025696 
	C413.782471,901.311829 412.611755,899.079651 412.620483,894.823853 
	C412.762665,825.506348 412.721039,756.188538 412.721069,686.870789 
	C412.721069,660.376770 412.787811,633.882324 412.641083,607.389099 
	C412.621796,603.906555 413.551025,601.702332 416.846924,600.519287 
	C422.313934,598.556885 427.752350,596.514893 433.606934,594.381958 
z"/>
</svg>